<svg width="71" height="52" viewBox="0 0 71 52" fill="none" xmlns="http://www.w3.org/2000/svg">
<path d="M13.6015 1.48005C13.8366 0.606826 14.6284 0 15.5328 0H67.866C69.1895 0 70.148 1.26236 69.7925 2.5372L56.4079 50.5372C56.1668 51.4019 55.3791 52 54.4814 52H2.60968C1.29363 52 0.33631 50.7508 0.678447 49.4801L13.6015 1.48005Z" fill="#1E1E1E"/>
<path d="M36.9139 38.1421C36.7377 38.1241 36.5715 38.052 36.4389 37.9358C36.3064 37.8197 36.214 37.6655 36.1751 37.4951L33.3199 25.0463L22.243 19.8764C22.0825 19.8013 21.95 19.6784 21.8642 19.525C21.7784 19.3716 21.7438 19.1957 21.7651 19.0221C21.7865 18.8485 21.8628 18.6861 21.9832 18.5579C22.1036 18.4298 22.262 18.3425 22.4359 18.3083L46.9158 13.5039C47.0669 13.4744 47.2234 13.4863 47.3684 13.5383C47.5133 13.5903 47.6412 13.6803 47.7381 13.7988C47.8351 13.9172 47.8973 14.0594 47.9182 14.2101C47.9391 14.3607 47.9178 14.5139 47.8566 14.6532L37.772 37.6452C37.7016 37.8065 37.5811 37.9415 37.4278 38.0308C37.2746 38.1202 37.0964 38.1593 36.9189 38.1426L36.9139 38.1421ZM25.2712 19.4506L34.4162 23.7236C34.5322 23.7779 34.6342 23.8575 34.7145 23.9564C34.7947 24.0553 34.8511 24.1708 34.8794 24.2942L37.2496 34.6461L45.6633 15.4464L25.2712 19.4506Z" fill="white"/>
</svg>
