<svg width="71" height="52" viewBox="0 0 71 52" fill="none" xmlns="http://www.w3.org/2000/svg">
<path d="M13.6015 1.48005C13.8366 0.606826 14.6284 0 15.5328 0H67.866C69.1895 0 70.148 1.26236 69.7925 2.5372L56.4079 50.5372C56.1668 51.4019 55.3791 52 54.4814 52H2.60968C1.29363 52 0.33631 50.7508 0.678447 49.4801L13.6015 1.48005Z" fill="#1E1E1E"/>
<path d="M47.5279 14.3948L45.721 12.6974C44.7271 11.7638 43.1503 11.8131 42.2167 12.8069L24.3939 31.7795L23.7094 37.9394L29.8146 36.8717L47.6374 17.8991C48.571 16.9053 48.5217 15.3284 47.5279 14.3948ZM25.1523 36.4036L25.4781 32.798L28.6401 35.7684L25.1523 36.4036ZM29.7599 35.1196L26.1461 31.7248L39.7253 17.2695L43.3392 20.6643L29.7599 35.1196ZM44.1879 19.7608L40.574 16.366L43.1202 13.6557C43.5445 13.204 44.4206 13.1765 44.8723 13.6009L46.6792 15.2983C47.2213 15.8075 47.2432 16.5084 46.734 17.0505L44.1879 19.7608Z" fill="white"/>
</svg>
