<svg xmlns="http://www.w3.org/2000/svg" width="22" height="23" viewBox="0 0 22 23" fill="none">
<path d="M20.1135 2.57388L18.7435 1.28694C17.99 0.579106 16.7944 0.616465 16.0866 1.36996L2.57374 15.7546L2.0548 20.4249L6.68363 19.6154L20.1965 5.23078C20.9043 4.47728 20.867 3.28171 20.1135 2.57388ZM3.14875 19.2605L3.39575 16.5268L5.79317 18.7789L3.14875 19.2605ZM6.64215 18.287L3.90222 15.7131L14.1977 4.75339L16.9377 7.32727L6.64215 18.287ZM17.5811 6.64229L14.8412 4.06841L16.7716 2.01347C17.0933 1.67099 17.7576 1.6502 18.1001 1.97195L19.47 3.25889C19.881 3.64497 19.8976 4.17635 19.5115 4.58734L17.5811 6.64229Z" fill="white"/>
</svg>