<svg width="43" height="44" viewBox="0 0 43 44" fill="none" xmlns="http://www.w3.org/2000/svg">
<g filter="url(#filter0_d_68_2)">
<circle cx="22" cy="20" r="17" fill="#FFFDFD"/>
</g>
<path d="M25.8037 19.5L20.1453 25.1693C20.0987 25.215 20.0619 25.2692 20.037 25.3289C20.012 25.3885 19.9995 25.4524 20 25.5168C20.0006 25.5812 20.0142 25.6449 20.0402 25.7042C20.0661 25.7634 20.1039 25.817 20.1512 25.862C20.1986 25.9069 20.2546 25.9422 20.3161 25.9659C20.3775 25.9896 20.4432 26.0011 20.5092 25.9999C20.5753 25.9987 20.6405 25.9847 20.701 25.9588C20.7614 25.9328 20.816 25.8954 20.8616 25.8488L26.8584 19.8398C26.9492 19.7488 27 19.6269 27 19.5C27 19.3731 26.9492 19.2512 26.8584 19.1602L20.8616 13.1512C20.816 13.1046 20.7614 13.0672 20.701 13.0412C20.6405 13.0153 20.5753 13.0013 20.5092 13.0001C20.4432 12.9989 20.3775 13.0104 20.3161 13.0341C20.2546 13.0578 20.1986 13.0931 20.1512 13.138C20.1039 13.183 20.0661 13.2366 20.0402 13.2958C20.0142 13.3551 20.0006 13.4188 20 13.4832C19.9995 13.5476 20.012 13.6115 20.037 13.6711C20.0619 13.7308 20.0987 13.785 20.1453 13.8307L25.8037 19.5Z" fill="#343434"/>
<defs>
<filter id="filter0_d_68_2" x="0" y="0" width="44" height="44" filterUnits="userSpaceOnUse" color-interpolation-filters="sRGB">
<feFlood flood-opacity="0" result="BackgroundImageFix"/>
<feColorMatrix in="SourceAlpha" type="matrix" values="0 0 0 0 0 0 0 0 0 0 0 0 0 0 0 0 0 0 127 0" result="hardAlpha"/>
<feOffset dy="2"/>
<feGaussianBlur stdDeviation="2.5"/>
<feComposite in2="hardAlpha" operator="out"/>
<feColorMatrix type="matrix" values="0 0 0 0 0 0 0 0 0 0 0 0 0 0 0 0 0 0 0.25 0"/>
<feBlend mode="normal" in2="BackgroundImageFix" result="effect1_dropShadow_68_2"/>
<feBlend mode="normal" in="SourceGraphic" in2="effect1_dropShadow_68_2" result="shape"/>
</filter>
</defs>
</svg>
