<svg width="71" height="52" viewBox="0 0 71 52" fill="none" xmlns="http://www.w3.org/2000/svg">
<path d="M13.6015 1.48005C13.8366 0.606826 14.6284 0 15.5328 0H67.866C69.1895 0 70.148 1.26236 69.7925 2.5372L56.4079 50.5372C56.1668 51.4019 55.3791 52 54.4814 52H2.60968C1.29363 52 0.33631 50.7508 0.678447 49.4801L13.6015 1.48005Z" fill="#1E1E1E"/>
<path d="M49 25.1758H47.643V18.9334C47.643 17.4368 46.4255 16.2193 44.9289 16.2193H43.091L41.2101 12.8376C40.9234 12.3208 40.3779 12 39.7863 12C39.5105 12 39.2369 12.0711 38.9954 12.2052L31.777 16.2192H23.7141C22.2175 16.2192 21 17.4367 21 18.9333V37.5698C21 39.0664 22.2175 40.2839 23.7141 40.2839H44.9289C46.4255 40.2839 47.643 39.0664 47.643 37.5698V32.0966H49V25.1758ZM44.9289 17.3049C45.7648 17.3049 46.4477 17.94 46.5394 18.7526H44.4995L43.695 17.3049H44.9289ZM39.5235 13.154C39.7781 13.0112 40.1206 13.1111 40.2612 13.3646L43.2575 18.752H29.456L39.5235 13.154ZM46.5573 37.5698C46.5573 38.4676 45.8266 39.1983 44.9288 39.1983H23.7141C22.8162 39.1983 22.0856 38.4676 22.0856 37.5698V18.9334C22.0856 18.0356 22.8162 17.3049 23.7141 17.3049H29.825L27.2217 18.7526H24.0533C23.7532 18.7526 23.5105 18.9958 23.5105 19.2955C23.5105 19.5951 23.7532 19.8383 24.0533 19.8383H25.2692H45.1031H46.5573V25.1763H42.5877C40.7443 25.1763 39.244 26.6767 39.244 28.52V28.7535C39.244 30.5969 40.7444 32.0972 42.5877 32.0972H46.5573V37.5698ZM47.9143 31.011H47.643H42.5877C41.3425 31.011 40.3296 29.9982 40.3296 28.7529V28.5194C40.3296 27.2742 41.3425 26.2613 42.5877 26.2613H47.643H47.9143V31.011ZM44.2503 28.6807C44.2503 29.343 43.714 29.8792 43.0519 29.8792C42.3896 29.8792 41.8534 29.3429 41.8534 28.6807C41.8534 28.0186 42.3897 27.4822 43.0519 27.4822C43.7141 27.4822 44.2503 28.019 44.2503 28.6807Z" fill="white"/>
</svg>
