<svg width="71" height="52" viewBox="0 0 71 52" fill="none" xmlns="http://www.w3.org/2000/svg">
<path d="M13.6015 1.48005C13.8366 0.606826 14.6284 0 15.5328 0H67.866C69.1895 0 70.148 1.26236 69.7925 2.5372L56.4079 50.5372C56.1668 51.4019 55.3791 52 54.4814 52H2.60968C1.29363 52 0.33631 50.7508 0.678447 49.4801L13.6015 1.48005Z" fill="#1E1E1E"/>
<path d="M43.8951 40.7299C42.6581 40.7299 41.1641 40.4199 39.5221 39.8009C35.9191 38.4419 32.0011 35.7579 28.4871 32.2439C24.9731 28.7299 22.2891 24.8109 20.9301 21.2069C19.6931 17.9319 19.6901 15.2439 20.9201 14.0139C21.0981 13.8359 21.2791 13.6459 21.4651 13.4509C22.5881 12.2709 23.8871 10.9299 25.5381 11.0029C26.6981 11.0509 27.8211 11.7709 28.9731 13.2009C32.3691 17.4259 30.8381 18.9319 29.0661 20.6779L28.7521 20.9879C28.4621 21.2779 27.9131 22.6199 33.0121 27.7179C34.6781 29.3829 36.0961 30.6009 37.2291 31.3379C37.9441 31.8019 39.2201 32.5019 39.7431 31.9789L40.0581 31.6609C41.8021 29.8909 43.3081 28.3649 47.5321 31.7599C48.9631 32.9099 49.6821 34.0329 49.7301 35.1939C49.7991 36.8759 48.4591 38.1479 47.2771 39.2699C47.0831 39.4549 46.8931 39.6339 46.7171 39.8099C46.1031 40.4229 45.1271 40.7299 43.8951 40.7299ZM25.4191 11.9989C24.2251 11.9989 23.1451 13.1349 22.1901 14.1389C21.9971 14.3409 21.8101 14.5379 21.6271 14.7209C20.7111 15.6359 20.8051 18.0439 21.8651 20.8549C23.1751 24.3279 25.7781 28.1219 29.1941 31.5379C32.6101 34.9539 36.4031 37.5559 39.8751 38.8659C42.6861 39.9269 45.0941 40.0189 46.0101 39.1019C46.1931 38.9199 46.3881 38.7339 46.5881 38.5439C47.6161 37.5669 48.7811 36.4609 48.7311 35.2329C48.6961 34.3899 48.0821 33.4829 46.9051 32.5379C43.3851 29.7099 42.4021 30.7099 40.7701 32.3619L40.4501 32.6849C39.6731 33.4659 38.4061 33.2949 36.6841 32.1749C35.4941 31.4009 34.0201 30.1379 32.3051 28.4239C28.0741 24.1929 26.7201 21.6049 28.0451 20.2789L28.3641 19.9629C30.0221 18.3309 31.0221 17.3459 28.1931 13.8259C27.2471 12.6509 26.3401 12.0369 25.4971 12.0009C25.4711 11.9999 25.4441 11.9989 25.4191 11.9989Z" fill="white"/>
<path d="M44.0691 23.2868C44.0061 23.2868 43.9431 23.2748 43.8811 23.2498C43.6251 23.1458 43.5011 22.8548 43.6061 22.5998C44.2421 21.0318 43.8781 19.2448 42.6821 18.0478C41.4531 16.8188 39.5641 16.4778 37.9791 17.1898C37.7301 17.3028 37.4311 17.1928 37.3181 16.9408C37.2041 16.6888 37.3151 16.3928 37.5671 16.2798C39.5281 15.3918 41.8671 15.8188 43.3891 17.3418C44.8701 18.8228 45.3191 21.0338 44.5321 22.9758C44.4541 23.1678 44.2661 23.2868 44.0691 23.2868Z" fill="white"/>
<path d="M48.5341 25.0989C48.4711 25.0989 48.4081 25.0869 48.3461 25.0619C48.0891 24.9579 47.9661 24.6669 48.0711 24.4119C49.4361 21.0449 48.6591 17.2099 46.0901 14.6409C43.4521 12.0029 39.3951 11.2629 35.9951 12.7999C35.7431 12.9099 35.4471 12.8019 35.3331 12.5499C35.2201 12.2969 35.3311 12.0009 35.5831 11.8869C39.3601 10.1809 43.8661 11.0019 46.7971 13.9329C49.6511 16.7869 50.5151 21.0469 48.9971 24.7869C48.9191 24.9809 48.7311 25.0989 48.5341 25.0989Z" fill="white"/>
</svg>
